# xmcd
#
# Track frame offsets:
#	183
#	16783
#	24070
#	37015
#	48455
#	59258
#	72153
#	85450
#	100833
#	113085
#	125628
#	138535
#	169870
#	181418
#	194525
#	207075
#	219740
#	230343
#	243948
#	254003
#	266470
#	276070
#	291890
#	306820
#
# Disc length: 4452 seconds
#
# Revision: 0
# Processed by: cddbd v1.5.1PL0 Copyright (c) Steve Scherf et al.
# Submitted via: EasyCDDAExtractor 4.5.0.2
#
DISCID=61116218
DTITLE=James Brown - The Wonderful world of James Brown (1962-1966)
DYEAR=1992
DGENRE=Funk
TTITLE0=Night Train
TTITLE1=Shout And Shimmy (live)
TTITLE2=Like A Baby
TTITLE3=I've Got Money
TTITLE4=Prisioner Of Love
TTITLE5=These Foolish Things (live)
TTITLE6=(Can You) Feel It - Part 1
TTITLE7=Lost Someone
TTITLE8=Signed, Sealed, And Delivered
TTITLE9=Waiting In Vain
TTITLE10=In The Wee Wee Hours (Of The Nite)
TTITLE11=Oh Baby Don't You Weep (live)
TTITLE12=Again
TTITLE13=How Long Darling
TTITLE14=So Long
TTITLE15=The Things That I Used To Do
TTITLE16=Out Of Sight
TTITLE17=Maybe The Last Time
TTITLE18=Have Mercy Baby
TTITLE19=I Got You (I Feel Good)
TTITLE20=Papa's Got A Brand New Bag - Part 1
TTITLE21=Ain't That A Groove - Part 1
TTITLE22=It's A Man's Man's World
TTITLE23=Money Won't Change You
EXTD=
EXTT0=
EXTT1=
EXTT2=
EXTT3=
EXTT4=
EXTT5=
EXTT6=
EXTT7=
EXTT8=
EXTT9=
EXTT10=
EXTT11=
EXTT12=
EXTT13=
EXTT14=
EXTT15=
EXTT16=
EXTT17=
EXTT18=
EXTT19=
EXTT20=
EXTT21=
EXTT22=
EXTT23=
PLAYORDER=
